<svg width="193" height="38" viewBox="0 0 193 38" fill="none" xmlns="http://www.w3.org/2000/svg">
<path fill-rule="evenodd" clip-rule="evenodd" d="M18.5801 37.5802C28.8417 37.5802 37.1603 29.2615 37.1603 19C37.1603 8.73847 28.8417 0.419861 18.5801 0.419861C8.31861 0.419861 0 8.73847 0 19C0 29.2615 8.31861 37.5802 18.5801 37.5802ZM17.0797 18.8078L19.3896 14.7546C19.6391 14.3172 19.3219 13.7721 18.8199 13.769H17.4185C17.1844 13.769 16.9688 13.6458 16.8518 13.4425L15.8908 11.7824C15.6382 11.345 15.9555 10.7968 16.4606 10.7968L23.9295 10.8122C24.4346 10.8153 24.7488 11.3574 24.4993 11.7947L19.1802 21.1178C18.9277 21.5582 18.2932 21.5582 18.0406 21.1209L17.0797 19.4608C16.9657 19.2606 16.9626 19.0111 17.0797 18.8078ZM28.5124 10.8245C28.2753 10.8245 28.0566 10.9508 27.9395 11.1571L19.2017 26.48C18.9522 26.9204 18.3177 26.9235 18.0621 26.4831L11.9976 16.0081H11.6989L10.3252 18.4135C10.2082 18.6168 10.2112 18.8663 10.3252 19.0696L18.0744 32.449C18.327 32.8863 18.9614 32.8863 19.214 32.4459L30.9856 11.8132C31.2351 11.3758 30.921 10.8337 30.4158 10.8307L28.5124 10.8245ZM6.80807 10.7967H8.04006H9.26281C9.7556 10.7967 10.0605 11.3295 9.81412 11.7545L9.20121 12.8048V12.8171L8.58829 13.8674C8.3419 14.2893 7.73206 14.2893 7.48566 13.8674L6.86967 12.8171V12.8079L6.25676 11.7545C6.01036 11.3295 6.31836 10.7967 6.80807 10.7967Z" fill="#1B369A"/>
<path d="M66.066 8.34912H65.809L65.7092 8.58595L60.5127 20.9235C59.8477 22.5023 57.6104 22.5023 56.9454 20.9235L51.7489 8.58595L51.6491 8.34912H51.3921H48.7729H48.1899L48.4162 8.88647L56.5544 28.2071C56.9229 29.082 57.7798 29.6509 58.7291 29.6509C59.6784 29.6509 60.5353 29.082 60.9038 28.2071L69.0419 8.88647L69.2682 8.34912H68.6852H66.066ZM76.0568 8.34912H75.6697V8.73621V11.1503V11.5374H76.0568H84.1269V28.0567C84.1269 28.9372 84.8406 29.6509 85.721 29.6509C86.6014 29.6509 87.3151 28.9372 87.3151 28.0567V11.5374H95.3852H95.7723V11.1503V8.73621V8.34912H95.3852H76.0568ZM120.066 8.34912H119.809L119.709 8.58595L114.512 20.9235C113.847 22.5023 111.61 22.5023 110.945 20.9235L105.749 8.58595L105.649 8.34912H105.392H102.773H102.19L102.416 8.88647L110.554 28.2071C110.923 29.082 111.779 29.6509 112.729 29.6509C113.678 29.6509 114.535 29.082 114.903 28.2071L123.042 8.88647L123.268 8.34912H122.685H120.066ZM130.056 8.34912H129.669V8.73621V26.9413C129.669 28.4377 130.883 29.6509 132.379 29.6509H149.385H149.772V29.2638V26.8497V26.4626H149.385H134.793C133.724 26.4626 132.858 25.5961 132.858 24.5272V8.73621V8.34912H132.471H130.056Z" fill="#1B369A" stroke="#1B369A" stroke-width="0.774173"/>
<rect x="158.675" y="0.419861" width="33.3868" height="14" rx="7" fill="#F9623B"/>
<path d="M165.456 10.4199V3.66344H168.161C168.658 3.66344 169.072 3.73712 169.404 3.88448C169.737 4.03184 169.986 4.23638 170.153 4.4981C170.32 4.75762 170.404 5.05674 170.404 5.39544C170.404 5.65936 170.351 5.89139 170.246 6.09153C170.14 6.28947 169.995 6.45223 169.81 6.57979C169.628 6.70515 169.419 6.79423 169.183 6.84701V6.91299C169.441 6.92399 169.682 6.99657 169.906 7.13073C170.132 7.26489 170.316 7.45293 170.457 7.69486C170.598 7.93459 170.668 8.22051 170.668 8.55261C170.668 8.9111 170.579 9.23111 170.401 9.51263C170.225 9.79195 169.964 10.013 169.619 10.1757C169.274 10.3385 168.848 10.4199 168.342 10.4199H165.456ZM166.884 9.252H168.049C168.447 9.252 168.737 9.17613 168.919 9.02437C169.102 8.87042 169.193 8.66588 169.193 8.41075C169.193 8.22381 169.148 8.05885 169.058 7.9159C168.968 7.77294 168.839 7.66077 168.672 7.57939C168.507 7.49802 168.31 7.45733 168.082 7.45733H166.884V9.252ZM166.884 6.49071H167.943C168.139 6.49071 168.312 6.45662 168.464 6.38844C168.618 6.31807 168.739 6.21909 168.827 6.09153C168.917 5.96397 168.962 5.81111 168.962 5.63297C168.962 5.38884 168.876 5.192 168.702 5.04244C168.53 4.89288 168.286 4.81811 167.969 4.81811H166.884V6.49071ZM173.88 10.5188C173.359 10.5188 172.91 10.4133 172.534 10.2021C172.161 9.98879 171.872 9.68748 171.67 9.29819C171.468 8.90671 171.367 8.44374 171.367 7.9093C171.367 7.38805 171.468 6.93059 171.67 6.5369C171.872 6.14322 172.157 5.83641 172.525 5.61647C172.894 5.39654 173.327 5.28657 173.824 5.28657C174.159 5.28657 174.47 5.34045 174.758 5.44822C175.048 5.55379 175.301 5.71324 175.517 5.92658C175.734 6.13992 175.904 6.40824 176.025 6.73154C176.146 7.05265 176.206 7.42874 176.206 7.85981V8.2458H171.927V7.37485H174.883C174.883 7.17251 174.839 6.99327 174.751 6.83711C174.663 6.68096 174.541 6.55889 174.385 6.47092C174.231 6.38075 174.052 6.33566 173.847 6.33566C173.634 6.33566 173.445 6.38515 173.28 6.48412C173.117 6.58089 172.99 6.71175 172.897 6.8767C172.805 7.03945 172.758 7.2209 172.755 7.42104V8.2491C172.755 8.49982 172.802 8.71646 172.894 8.89901C172.989 9.08155 173.122 9.22231 173.293 9.32128C173.465 9.42025 173.668 9.46974 173.904 9.46974C174.06 9.46974 174.203 9.44775 174.332 9.40376C174.462 9.35977 174.573 9.29379 174.666 9.20582C174.758 9.11784 174.828 9.01007 174.877 8.88251L176.177 8.96829C176.111 9.2806 175.975 9.55332 175.771 9.78645C175.568 10.0174 175.307 10.1977 174.986 10.3275C174.667 10.4551 174.298 10.5188 173.88 10.5188ZM179.819 5.35255V6.40824H176.767V5.35255H179.819ZM177.46 4.1385H178.865V8.86272C178.865 8.99248 178.885 9.09365 178.925 9.16623C178.964 9.23661 179.019 9.28609 179.09 9.31469C179.162 9.34328 179.246 9.35757 179.34 9.35757C179.406 9.35757 179.472 9.35207 179.538 9.34108C179.604 9.32788 179.655 9.31798 179.69 9.31139L179.911 10.3572C179.841 10.3792 179.742 10.4045 179.614 10.4331C179.487 10.4638 179.332 10.4825 179.149 10.4891C178.81 10.5023 178.513 10.4572 178.258 10.3539C178.005 10.2505 177.808 10.09 177.668 9.87222C177.527 9.65449 177.458 9.37957 177.46 9.04746V4.1385ZM182.179 10.5155C181.856 10.5155 181.568 10.4594 181.315 10.3473C181.062 10.2329 180.862 10.0647 180.714 9.84253C180.569 9.6182 180.497 9.33888 180.497 9.00458C180.497 8.72306 180.548 8.48663 180.652 8.29528C180.755 8.10394 180.896 7.94999 181.074 7.83342C181.252 7.71685 181.454 7.62888 181.681 7.5695C181.91 7.51012 182.149 7.46833 182.4 7.44413C182.695 7.41334 182.932 7.38475 183.113 7.35836C183.293 7.32977 183.424 7.28798 183.505 7.233C183.587 7.17801 183.627 7.09664 183.627 6.98887V6.96907C183.627 6.76014 183.561 6.59848 183.429 6.48412C183.3 6.36975 183.115 6.31257 182.875 6.31257C182.622 6.31257 182.421 6.36865 182.272 6.48082C182.122 6.59079 182.023 6.72934 181.975 6.8965L180.675 6.79093C180.741 6.48302 180.871 6.21689 181.064 5.99256C181.258 5.76603 181.507 5.59228 181.813 5.47131C182.121 5.34815 182.477 5.28657 182.882 5.28657C183.163 5.28657 183.433 5.31956 183.69 5.38554C183.95 5.45152 184.179 5.55379 184.38 5.69235C184.582 5.83091 184.741 6.00906 184.858 6.22679C184.975 6.44233 185.033 6.70075 185.033 7.00206V10.4199H183.7V9.71717H183.66C183.579 9.87552 183.47 10.0152 183.334 10.1361C183.197 10.2549 183.034 10.3484 182.842 10.4166C182.651 10.4825 182.43 10.5155 182.179 10.5155ZM182.582 9.54562C182.788 9.54562 182.971 9.50493 183.129 9.42355C183.288 9.33998 183.412 9.22781 183.502 9.08705C183.592 8.94629 183.637 8.78684 183.637 8.60869V8.07095C183.593 8.09954 183.533 8.12593 183.456 8.15013C183.381 8.17212 183.296 8.19301 183.202 8.21281C183.107 8.2304 183.013 8.2469 182.918 8.26229C182.824 8.27549 182.738 8.28759 182.661 8.29858C182.496 8.32278 182.352 8.36127 182.229 8.41405C182.105 8.46683 182.01 8.53831 181.942 8.62849C181.873 8.71646 181.839 8.82643 181.839 8.95839C181.839 9.14973 181.909 9.29599 182.047 9.39716C182.188 9.49613 182.366 9.54562 182.582 9.54562Z" fill="white"/>
</svg>
